<mxfile host="app.diagrams.net" modified="2023-05-04T12:57:08.339Z" agent="Mozilla/5.0 (Windows NT 10.0; Win64; x64) AppleWebKit/537.36 (KHTML, like Gecko) Chrome/112.0.0.0 Safari/537.36 Edg/112.0.1722.68" etag="OMj-PY4awsYQxneBbORp" version="21.2.7" type="github">
  <diagram name="Page-1" id="74e2e168-ea6b-b213-b513-2b3c1d86103e">
    <mxGraphModel dx="1502" dy="688" grid="1" gridSize="10" guides="1" tooltips="1" connect="1" arrows="1" fold="1" page="1" pageScale="1" pageWidth="1100" pageHeight="850" background="none" math="0" shadow="0">
      <root>
        <mxCell id="0" />
        <mxCell id="1" parent="0" />
        <mxCell id="ec3Ug09mKDo24IiBsyHa-7" style="edgeStyle=none;curved=1;rounded=0;orthogonalLoop=1;jettySize=auto;html=1;entryX=0.513;entryY=0.169;entryDx=0;entryDy=0;entryPerimeter=0;endArrow=open;startSize=14;endSize=14;sourcePerimeterSpacing=8;targetPerimeterSpacing=8;" edge="1" parent="1" source="ec3Ug09mKDo24IiBsyHa-2" target="ec3Ug09mKDo24IiBsyHa-4">
          <mxGeometry relative="1" as="geometry" />
        </mxCell>
        <mxCell id="ec3Ug09mKDo24IiBsyHa-2" value="Digite um número" style="strokeWidth=2;html=1;shape=mxgraph.flowchart.display;whiteSpace=wrap;" vertex="1" parent="1">
          <mxGeometry x="485" y="120" width="140" height="60" as="geometry" />
        </mxCell>
        <mxCell id="ec3Ug09mKDo24IiBsyHa-3" style="edgeStyle=none;curved=1;rounded=0;orthogonalLoop=1;jettySize=auto;html=1;endArrow=open;startSize=14;endSize=14;sourcePerimeterSpacing=8;targetPerimeterSpacing=8;" edge="1" parent="1" source="ec3Ug09mKDo24IiBsyHa-1" target="ec3Ug09mKDo24IiBsyHa-2">
          <mxGeometry relative="1" as="geometry" />
        </mxCell>
        <mxCell id="ec3Ug09mKDo24IiBsyHa-1" value="Começo" style="ellipse;whiteSpace=wrap;html=1;" vertex="1" parent="1">
          <mxGeometry x="490" y="10" width="130" height="70" as="geometry" />
        </mxCell>
        <mxCell id="ec3Ug09mKDo24IiBsyHa-10" value="" style="edgeStyle=none;curved=1;rounded=0;orthogonalLoop=1;jettySize=auto;html=1;endArrow=open;startSize=14;endSize=14;sourcePerimeterSpacing=8;targetPerimeterSpacing=8;" edge="1" parent="1" source="ec3Ug09mKDo24IiBsyHa-4" target="ec3Ug09mKDo24IiBsyHa-8">
          <mxGeometry relative="1" as="geometry" />
        </mxCell>
        <mxCell id="ec3Ug09mKDo24IiBsyHa-4" value="num1(flutuante)" style="html=1;strokeWidth=2;shape=manualInput;whiteSpace=wrap;rounded=1;size=26;arcSize=11;" vertex="1" parent="1">
          <mxGeometry x="495" y="220" width="120" height="70" as="geometry" />
        </mxCell>
        <mxCell id="ec3Ug09mKDo24IiBsyHa-14" style="edgeStyle=none;curved=1;rounded=0;orthogonalLoop=1;jettySize=auto;html=1;entryX=0.458;entryY=0.223;entryDx=0;entryDy=0;entryPerimeter=0;endArrow=open;startSize=14;endSize=14;sourcePerimeterSpacing=8;targetPerimeterSpacing=8;" edge="1" parent="1" source="ec3Ug09mKDo24IiBsyHa-8" target="ec3Ug09mKDo24IiBsyHa-13">
          <mxGeometry relative="1" as="geometry" />
        </mxCell>
        <mxCell id="ec3Ug09mKDo24IiBsyHa-8" value="Digite outro número" style="strokeWidth=2;html=1;shape=mxgraph.flowchart.display;whiteSpace=wrap;" vertex="1" parent="1">
          <mxGeometry x="485" y="340" width="140" height="60" as="geometry" />
        </mxCell>
        <mxCell id="ec3Ug09mKDo24IiBsyHa-17" style="edgeStyle=none;curved=1;rounded=0;orthogonalLoop=1;jettySize=auto;html=1;endArrow=open;startSize=14;endSize=14;sourcePerimeterSpacing=8;targetPerimeterSpacing=8;" edge="1" parent="1" source="ec3Ug09mKDo24IiBsyHa-11" target="ec3Ug09mKDo24IiBsyHa-16">
          <mxGeometry relative="1" as="geometry" />
        </mxCell>
        <mxCell id="ec3Ug09mKDo24IiBsyHa-11" value="soma =&amp;nbsp; num1 + num2" style="rounded=1;whiteSpace=wrap;html=1;absoluteArcSize=1;arcSize=14;strokeWidth=2;" vertex="1" parent="1">
          <mxGeometry x="460" y="560" width="210" height="60" as="geometry" />
        </mxCell>
        <mxCell id="ec3Ug09mKDo24IiBsyHa-15" style="edgeStyle=none;curved=1;rounded=0;orthogonalLoop=1;jettySize=auto;html=1;entryX=0.463;entryY=0.043;entryDx=0;entryDy=0;entryPerimeter=0;endArrow=open;startSize=14;endSize=14;sourcePerimeterSpacing=8;targetPerimeterSpacing=8;" edge="1" parent="1" source="ec3Ug09mKDo24IiBsyHa-13" target="ec3Ug09mKDo24IiBsyHa-11">
          <mxGeometry relative="1" as="geometry" />
        </mxCell>
        <mxCell id="ec3Ug09mKDo24IiBsyHa-13" value="num2(flutuante)" style="html=1;strokeWidth=2;shape=manualInput;whiteSpace=wrap;rounded=1;size=26;arcSize=11;" vertex="1" parent="1">
          <mxGeometry x="500" y="440" width="115" height="80" as="geometry" />
        </mxCell>
        <mxCell id="ec3Ug09mKDo24IiBsyHa-19" value="" style="edgeStyle=none;curved=1;rounded=0;orthogonalLoop=1;jettySize=auto;html=1;endArrow=open;startSize=14;endSize=14;sourcePerimeterSpacing=8;targetPerimeterSpacing=8;" edge="1" parent="1" source="ec3Ug09mKDo24IiBsyHa-16" target="ec3Ug09mKDo24IiBsyHa-18">
          <mxGeometry relative="1" as="geometry" />
        </mxCell>
        <mxCell id="ec3Ug09mKDo24IiBsyHa-16" value="soma" style="strokeWidth=2;html=1;shape=mxgraph.flowchart.display;whiteSpace=wrap;" vertex="1" parent="1">
          <mxGeometry x="497.5" y="670" width="135" height="70" as="geometry" />
        </mxCell>
        <mxCell id="ec3Ug09mKDo24IiBsyHa-18" value="fim" style="strokeWidth=2;html=1;shape=mxgraph.flowchart.terminator;whiteSpace=wrap;" vertex="1" parent="1">
          <mxGeometry x="515" y="770" width="100" height="60" as="geometry" />
        </mxCell>
      </root>
    </mxGraphModel>
  </diagram>
</mxfile>
